<svg xmlns="http://www.w3.org/2000/svg">
    <!-- Garage Door Icon -->
    <symbol id="Garage" viewBox="0 -960 960 960">
        <path d="M200-120v-406L88-440l-48-64 440-336 440 336-48 64-112-86v406h-80v-400H280v400h-80Zm120-40v-80h320v80H320Zm0-120v-80h320v80H320Zm0-120v-80h320v80H320Zm-23-200h366L480-739 297-600Z"/>
    </symbol>

    <!-- Open Garage Door Icon -->
    <symbol id="Up" viewBox="0 -960 960 960">
        <path d="M440-727 256-544l-56-56 280-280 280 280-56 57-184-184v287h-80v-287Zm0 487v-120h80v120h-80Zm0 160v-80h80v80h-80Z"/>
    </symbol>

    <!-- Close Garage Door Icon -->
    <symbol id="Down" viewBox="0 -960 960 960">
        <path d="M480-80 200-360l56-57 184 184v-287h80v287l184-183 56 56L480-80Zm-40-520v-120h80v120h-80Zm0-200v-80h80v80h-80Z"/>
    </symbol>

    <!-- Pause Garage Door Icon -->
    <symbol id="Pause" viewBox="0 -960 960 960">
        <path d="M520-200v-560h240v560H520Zm-320 0v-560h240v560H200Zm400-80h80v-400h-80v400Zm-320 0h80v-400h-80v400Zm0-400v400-400Zm320 0v400-400Z"/>
    </symbol>

    <!-- Resume Garage Door Icon -->
    <symbol id="Resume" viewBox="0 -960 960 960">
        <path d="M240-240v-480h80v480h-80Zm160 0 400-240-400-240v480Zm80-141v-198l165 99-165 99Zm0-99Z"/>
    </symbol>

    <!-- Access Camera Icon -->
    <symbol id="Camera" viewBox="0 -960 960 960">
        <path d="M371-200h218l-20-80H391l-20 80Zm-11-160h240q83 0 141.5-58.5T800-560q0-83-58.5-141.5T600-760H360q-83 0-141.5 58.5T160-560q0 83 58.5 141.5T360-360Zm120-120q-33 0-56.5-23.5T400-560q0-33 23.5-56.5T480-640q33 0 56.5 23.5T560-560q0 33-23.5 56.5T480-480ZM260-600q17 0 28.5-11.5T300-640q0-17-11.5-28.5T260-680q-17 0-28.5 11.5T220-640q0 17 11.5 28.5T260-600ZM160-120v-80h129l21-84q-99-17-164.5-94.5T80-560q0-117 81.5-198.5T360-840h240q117 0 198.5 81.5T880-560q0 104-65.5 181.5T650-284l21 84h129v80H160Zm320-280q66 0 113-47t47-113q0-66-47-113t-113-47q-66 0-113 47t-47 113q0 66 47 113t113 47Zm0-160ZM371-200h218-218Z"/>
    </symbol>
</svg>