<svg xmlns="http://www.w3.org/2000/svg">
    <!-- Garage Door Icon -->
    <symbol id="Garage" viewBox="0 -960 960 960">
        <path d="M200-120v-406L88-440l-48-64 440-336 440 336-48 64-112-86v406h-80v-400H280v400h-80Zm120-40v-80h320v80H320Zm0-120v-80h320v80H320Zm0-120v-80h320v80H320Zm-23-200h366L480-739 297-600Z"/>
    </symbol>

    <!-- Resume Garage Door Icon -->
    <symbol id="Resume" viewBox="0 -960 960 960">
        <path d="M240-240v-480h80v480h-80Zm160 0 400-240-400-240v480Zm80-141v-198l165 99-165 99Zm0-99Z"/>
    </symbol>

    <!-- Access Camera Icon -->
    <symbol id="Camera" viewBox="0 -960 960 960">
        <path d="M371-200h218l-20-80H391l-20 80Zm-11-160h240q83 0 141.5-58.5T800-560q0-83-58.5-141.5T600-760H360q-83 0-141.5 58.5T160-560q0 83 58.5 141.5T360-360Zm120-120q-33 0-56.5-23.5T400-560q0-33 23.5-56.5T480-640q33 0 56.5 23.5T560-560q0 33-23.5 56.5T480-480ZM260-600q17 0 28.5-11.5T300-640q0-17-11.5-28.5T260-680q-17 0-28.5 11.5T220-640q0 17 11.5 28.5T260-600ZM160-120v-80h129l21-84q-99-17-164.5-94.5T80-560q0-117 81.5-198.5T360-840h240q117 0 198.5 81.5T880-560q0 104-65.5 181.5T650-284l21 84h129v80H160Zm320-280q66 0 113-47t47-113q0-66-47-113t-113-47q-66 0-113 47t-47 113q0 66 47 113t113 47Zm0-160ZM371-200h218-218Z"/>
    </symbol>

    <!-- Return To Homepage -->
    <symbol id="Homepage" viewBox="0 -960 960 960">
        <path d="M240-200h120v-240h240v240h120v-360L480-740 240-560v360Zm-80 80v-480l320-240 320 240v480H520v-240h-80v240H160Zm320-350Z"/>
    </symbol>

    <!-- Logbook -->
    <symbol id="Logbook" viewBox="0 -960 960 960">
        <path d="M200-120q-33 0-56.5-23.5T120-200v-560q0-33 23.5-56.5T200-840h560q33 0 56.5 23.5T840-760v560q0 33-23.5 56.5T760-120H200Zm0-507h560v-133H200v133Zm0 214h560v-134H200v134Zm0 213h560v-133H200v133Zm40-454v-80h80v80h-80Zm0 214v-80h80v80h-80Zm0 214v-80h80v80h-80Z"/>
    </symbol>

    <!-- Admin -->
    <symbol id="admin" viewBox="0 -960 960 960">
        <path d="M680-280q25 0 42.5-17.5T740-340q0-25-17.5-42.5T680-400q-25 0-42.5 17.5T620-340q0 25 17.5 42.5T680-280Zm0 120q31 0 57-14.5t42-38.5q-22-13-47-20t-52-7q-27 0-52 7t-47 20q16 24 42 38.5t57 14.5ZM480-80q-139-35-229.5-159.5T160-516v-244l320-120 320 120v227q-19-8-39-14.5t-41-9.5v-147l-240-90-240 90v188q0 47 12.5 94t35 89.5Q310-290 342-254t71 60q11 32 29 61t41 52q-1 0-1.5.5t-1.5.5Zm200 0q-83 0-141.5-58.5T480-280q0-83 58.5-141.5T680-480q83 0 141.5 58.5T880-280q0 83-58.5 141.5T680-80ZM480-494Z"/>
    </symbol>
</svg>